<mxfile host="app.diagrams.net" modified="2022-12-08T20:23:17.699Z" agent="5.0 (Windows NT 10.0; Win64; x64) AppleWebKit/537.36 (KHTML, like Gecko) Chrome/108.0.0.0 Safari/537.36" version="20.6.0" etag="MAGoelje5wFxL_iii3Pz" type="github">
  <diagram id="q_VN3iTl_Mlv42kmaIzE" name="PÃ¡gina-1">
    <mxGraphModel dx="868" dy="390" grid="1" gridSize="10" guides="1" tooltips="1" connect="1" arrows="1" fold="1" page="1" pageScale="1" pageWidth="827" pageHeight="1169" math="0" shadow="0">
      <root>
        <mxCell id="0" />
        <mxCell id="1" parent="0" />
        <mxCell id="Uw-PuVtvZgdhiP12mq5c-33" style="edgeStyle=orthogonalEdgeStyle;rounded=0;orthogonalLoop=1;jettySize=auto;html=1;entryX=0.5;entryY=0;entryDx=0;entryDy=0;exitX=0;exitY=0.5;exitDx=0;exitDy=0;" edge="1" parent="1" source="Uw-PuVtvZgdhiP12mq5c-4" target="Uw-PuVtvZgdhiP12mq5c-24">
          <mxGeometry relative="1" as="geometry" />
        </mxCell>
        <mxCell id="Uw-PuVtvZgdhiP12mq5c-34" style="edgeStyle=orthogonalEdgeStyle;rounded=0;orthogonalLoop=1;jettySize=auto;html=1;entryX=0.5;entryY=0;entryDx=0;entryDy=0;" edge="1" parent="1" source="Uw-PuVtvZgdhiP12mq5c-1" target="Uw-PuVtvZgdhiP12mq5c-29">
          <mxGeometry relative="1" as="geometry" />
        </mxCell>
        <mxCell id="Uw-PuVtvZgdhiP12mq5c-1" value="trainer" style="swimlane;fontStyle=1;align=center;verticalAlign=top;childLayout=stackLayout;horizontal=1;startSize=26;horizontalStack=0;resizeParent=1;resizeParentMax=0;resizeLast=0;collapsible=1;marginBottom=0;" vertex="1" parent="1">
          <mxGeometry x="290" y="630" width="240" height="168" as="geometry" />
        </mxCell>
        <mxCell id="Uw-PuVtvZgdhiP12mq5c-2" value="+ maskDecoder: MaskBaseDecoder&#xa;+depth:Depth&#xa;+ maskSpadeDecoder" style="text;strokeColor=none;fillColor=none;align=left;verticalAlign=top;spacingLeft=4;spacingRight=4;overflow=hidden;rotatable=0;points=[[0,0.5],[1,0.5]];portConstraint=eastwest;" vertex="1" parent="Uw-PuVtvZgdhiP12mq5c-1">
          <mxGeometry y="26" width="240" height="54" as="geometry" />
        </mxCell>
        <mxCell id="Uw-PuVtvZgdhiP12mq5c-3" value="" style="line;strokeWidth=1;fillColor=none;align=left;verticalAlign=middle;spacingTop=-1;spacingLeft=3;spacingRight=3;rotatable=0;labelPosition=right;points=[];portConstraint=eastwest;strokeColor=inherit;" vertex="1" parent="Uw-PuVtvZgdhiP12mq5c-1">
          <mxGeometry y="80" width="240" height="8" as="geometry" />
        </mxCell>
        <mxCell id="Uw-PuVtvZgdhiP12mq5c-4" value="+ method(type): type&#xa;+ paintAndMask()" style="text;strokeColor=none;fillColor=none;align=left;verticalAlign=top;spacingLeft=4;spacingRight=4;overflow=hidden;rotatable=0;points=[[0,0.5],[1,0.5]];portConstraint=eastwest;" vertex="1" parent="Uw-PuVtvZgdhiP12mq5c-1">
          <mxGeometry y="88" width="240" height="80" as="geometry" />
        </mxCell>
        <mxCell id="Uw-PuVtvZgdhiP12mq5c-5" value="Painter" style="swimlane;fontStyle=1;align=center;verticalAlign=top;childLayout=stackLayout;horizontal=1;startSize=26;horizontalStack=0;resizeParent=1;resizeParentMax=0;resizeLast=0;collapsible=1;marginBottom=0;" vertex="1" parent="1">
          <mxGeometry x="680" y="644" width="160" height="60" as="geometry" />
        </mxCell>
        <mxCell id="Uw-PuVtvZgdhiP12mq5c-7" value="" style="line;strokeWidth=1;fillColor=none;align=left;verticalAlign=middle;spacingTop=-1;spacingLeft=3;spacingRight=3;rotatable=0;labelPosition=right;points=[];portConstraint=eastwest;strokeColor=inherit;" vertex="1" parent="Uw-PuVtvZgdhiP12mq5c-5">
          <mxGeometry y="26" width="160" height="8" as="geometry" />
        </mxCell>
        <mxCell id="Uw-PuVtvZgdhiP12mq5c-8" value="init()" style="text;strokeColor=none;fillColor=none;align=left;verticalAlign=top;spacingLeft=4;spacingRight=4;overflow=hidden;rotatable=0;points=[[0,0.5],[1,0.5]];portConstraint=eastwest;" vertex="1" parent="Uw-PuVtvZgdhiP12mq5c-5">
          <mxGeometry y="34" width="160" height="26" as="geometry" />
        </mxCell>
        <mxCell id="Uw-PuVtvZgdhiP12mq5c-10" value="maskSpadeDecoder" style="swimlane;fontStyle=1;align=center;verticalAlign=top;childLayout=stackLayout;horizontal=1;startSize=20;horizontalStack=0;resizeParent=1;resizeParentMax=0;resizeLast=0;collapsible=1;marginBottom=0;" vertex="1" parent="1">
          <mxGeometry x="592" y="840" width="160" height="54" as="geometry" />
        </mxCell>
        <mxCell id="Uw-PuVtvZgdhiP12mq5c-12" value="" style="line;strokeWidth=1;fillColor=none;align=left;verticalAlign=middle;spacingTop=-1;spacingLeft=3;spacingRight=3;rotatable=0;labelPosition=right;points=[];portConstraint=eastwest;strokeColor=inherit;" vertex="1" parent="Uw-PuVtvZgdhiP12mq5c-10">
          <mxGeometry y="20" width="160" height="8" as="geometry" />
        </mxCell>
        <mxCell id="Uw-PuVtvZgdhiP12mq5c-13" value="+ init()" style="text;strokeColor=none;fillColor=none;align=left;verticalAlign=top;spacingLeft=4;spacingRight=4;overflow=hidden;rotatable=0;points=[[0,0.5],[1,0.5]];portConstraint=eastwest;" vertex="1" parent="Uw-PuVtvZgdhiP12mq5c-10">
          <mxGeometry y="28" width="160" height="26" as="geometry" />
        </mxCell>
        <mxCell id="Uw-PuVtvZgdhiP12mq5c-32" style="edgeStyle=orthogonalEdgeStyle;rounded=0;orthogonalLoop=1;jettySize=auto;html=1;entryX=0.5;entryY=0;entryDx=0;entryDy=0;" edge="1" parent="1" source="Uw-PuVtvZgdhiP12mq5c-19" target="Uw-PuVtvZgdhiP12mq5c-1">
          <mxGeometry relative="1" as="geometry" />
        </mxCell>
        <mxCell id="Uw-PuVtvZgdhiP12mq5c-19" value="ApplyEvent" style="swimlane;fontStyle=1;align=center;verticalAlign=top;childLayout=stackLayout;horizontal=1;startSize=26;horizontalStack=0;resizeParent=1;resizeParentMax=0;resizeLast=0;collapsible=1;marginBottom=0;" vertex="1" parent="1">
          <mxGeometry x="300" y="440" width="220" height="150" as="geometry" />
        </mxCell>
        <mxCell id="Uw-PuVtvZgdhiP12mq5c-20" value="+ trainer: Trainer" style="text;strokeColor=none;fillColor=none;align=left;verticalAlign=top;spacingLeft=4;spacingRight=4;overflow=hidden;rotatable=0;points=[[0,0.5],[1,0.5]];portConstraint=eastwest;" vertex="1" parent="Uw-PuVtvZgdhiP12mq5c-19">
          <mxGeometry y="26" width="220" height="26" as="geometry" />
        </mxCell>
        <mxCell id="Uw-PuVtvZgdhiP12mq5c-21" value="" style="line;strokeWidth=1;fillColor=none;align=left;verticalAlign=middle;spacingTop=-1;spacingLeft=3;spacingRight=3;rotatable=0;labelPosition=right;points=[];portConstraint=eastwest;strokeColor=inherit;" vertex="1" parent="Uw-PuVtvZgdhiP12mq5c-19">
          <mxGeometry y="52" width="220" height="8" as="geometry" />
        </mxCell>
        <mxCell id="Uw-PuVtvZgdhiP12mq5c-22" value="+ loadTraainerInstance()&#xa;+ validateArguments()&#xa;+ readData()&#xa;+ApplyEvents()&#xa;+saveData()" style="text;strokeColor=none;fillColor=none;align=left;verticalAlign=top;spacingLeft=4;spacingRight=4;overflow=hidden;rotatable=0;points=[[0,0.5],[1,0.5]];portConstraint=eastwest;" vertex="1" parent="Uw-PuVtvZgdhiP12mq5c-19">
          <mxGeometry y="60" width="220" height="90" as="geometry" />
        </mxCell>
        <mxCell id="Uw-PuVtvZgdhiP12mq5c-24" value="maskBaseDecoder" style="swimlane;fontStyle=1;align=center;verticalAlign=top;childLayout=stackLayout;horizontal=1;startSize=26;horizontalStack=0;resizeParent=1;resizeParentMax=0;resizeLast=0;collapsible=1;marginBottom=0;" vertex="1" parent="1">
          <mxGeometry x="20" y="840" width="160" height="60" as="geometry" />
        </mxCell>
        <mxCell id="Uw-PuVtvZgdhiP12mq5c-26" value="" style="line;strokeWidth=1;fillColor=none;align=left;verticalAlign=middle;spacingTop=-1;spacingLeft=3;spacingRight=3;rotatable=0;labelPosition=right;points=[];portConstraint=eastwest;strokeColor=inherit;" vertex="1" parent="Uw-PuVtvZgdhiP12mq5c-24">
          <mxGeometry y="26" width="160" height="8" as="geometry" />
        </mxCell>
        <mxCell id="Uw-PuVtvZgdhiP12mq5c-27" value="+ init()" style="text;strokeColor=none;fillColor=none;align=left;verticalAlign=top;spacingLeft=4;spacingRight=4;overflow=hidden;rotatable=0;points=[[0,0.5],[1,0.5]];portConstraint=eastwest;" vertex="1" parent="Uw-PuVtvZgdhiP12mq5c-24">
          <mxGeometry y="34" width="160" height="26" as="geometry" />
        </mxCell>
        <mxCell id="Uw-PuVtvZgdhiP12mq5c-29" value="deph" style="swimlane;fontStyle=1;align=center;verticalAlign=top;childLayout=stackLayout;horizontal=1;startSize=26;horizontalStack=0;resizeParent=1;resizeParentMax=0;resizeLast=0;collapsible=1;marginBottom=0;" vertex="1" parent="1">
          <mxGeometry x="330" y="840" width="160" height="60" as="geometry" />
        </mxCell>
        <mxCell id="Uw-PuVtvZgdhiP12mq5c-30" value="" style="line;strokeWidth=1;fillColor=none;align=left;verticalAlign=middle;spacingTop=-1;spacingLeft=3;spacingRight=3;rotatable=0;labelPosition=right;points=[];portConstraint=eastwest;strokeColor=inherit;" vertex="1" parent="Uw-PuVtvZgdhiP12mq5c-29">
          <mxGeometry y="26" width="160" height="8" as="geometry" />
        </mxCell>
        <mxCell id="Uw-PuVtvZgdhiP12mq5c-31" value="+ init()" style="text;strokeColor=none;fillColor=none;align=left;verticalAlign=top;spacingLeft=4;spacingRight=4;overflow=hidden;rotatable=0;points=[[0,0.5],[1,0.5]];portConstraint=eastwest;" vertex="1" parent="Uw-PuVtvZgdhiP12mq5c-29">
          <mxGeometry y="34" width="160" height="26" as="geometry" />
        </mxCell>
        <mxCell id="Uw-PuVtvZgdhiP12mq5c-35" style="edgeStyle=orthogonalEdgeStyle;rounded=0;orthogonalLoop=1;jettySize=auto;html=1;" edge="1" parent="1" source="Uw-PuVtvZgdhiP12mq5c-4" target="Uw-PuVtvZgdhiP12mq5c-10">
          <mxGeometry relative="1" as="geometry" />
        </mxCell>
        <mxCell id="Uw-PuVtvZgdhiP12mq5c-36" style="edgeStyle=orthogonalEdgeStyle;rounded=0;orthogonalLoop=1;jettySize=auto;html=1;entryX=0;entryY=0.5;entryDx=0;entryDy=0;" edge="1" parent="1" source="Uw-PuVtvZgdhiP12mq5c-2">
          <mxGeometry relative="1" as="geometry">
            <mxPoint x="680" y="683" as="targetPoint" />
          </mxGeometry>
        </mxCell>
      </root>
    </mxGraphModel>
  </diagram>
</mxfile>
